<?xml version="1.0" encoding="UTF-8" standalone="no"?>
<svg
   xmlns:dc="http://purl.org/dc/elements/1.1/"
   xmlns:cc="http://creativecommons.org/ns#"
   xmlns:rdf="http://www.w3.org/1999/02/22-rdf-syntax-ns#"
   xmlns:svg="http://www.w3.org/2000/svg"
   xmlns="http://www.w3.org/2000/svg"
   xmlns:sodipodi="http://sodipodi.sourceforge.net/DTD/sodipodi-0.dtd"
   xmlns:inkscape="http://www.inkscape.org/namespaces/inkscape"
   height="255"
   width="255"
   version="1.2"
   id="Vrstva_1"
   x="0px"
   y="0px"
   viewBox="0 0 255 254.99999"
   xml:space="preserve"
   sodipodi:docname="PERLUR_Group_Logo_White.svg"
   inkscape:version="1.0 (4035a4fb49, 2020-05-01)"><metadata
   id="metadata37"><rdf:RDF><cc:Work
       rdf:about=""><dc:format>image/svg+xml</dc:format><dc:type
         rdf:resource="http://purl.org/dc/dcmitype/StillImage" /><dc:title></dc:title></cc:Work></rdf:RDF></metadata><defs
   id="defs35" /><sodipodi:namedview
   inkscape:document-rotation="0"
   pagecolor="#ffffff"
   bordercolor="#666666"
   borderopacity="1"
   objecttolerance="10"
   gridtolerance="10"
   guidetolerance="10"
   inkscape:pageopacity="1"
   inkscape:pageshadow="2"
   inkscape:window-width="1920"
   inkscape:window-height="986"
   id="namedview33"
   showgrid="false"
   inkscape:pagecheckerboard="true"
   inkscape:zoom="3.1483667"
   inkscape:cx="110.6"
   inkscape:cy="147.06038"
   inkscape:window-x="-11"
   inkscape:window-y="-11"
   inkscape:window-maximized="1"
   inkscape:current-layer="Vrstva_1" />
<g
   transform="translate(16.866393,0.43202302)"
   id="g30"
   style="fill:#ffffff">
	<path
   fill="#878787"
   d="M 61.4,131.3 C 37.9,114.5 19.3,94.2 9,74.2 -1.5,53.9 -2.8,35.2 5.4,21.5 14.5,6.4 34.1,-1.2 60.6,0.2 c 26.3,1.4 56.3,11.5 84.5,28.4 40.4,24.3 70.3,59.3 76.1,89.3 l -1.5,0.3 C 213.9,88.6 184.3,54 144.3,29.9 116.3,13 86.6,3 60.5,1.7 34.6,0.3 15.5,7.7 6.6,22.4 -1.3,35.5 0,53.7 10.3,73.5 20.6,93.3 39,113.3 62.3,130 Z"
   id="path2"
   style="fill:#ffffff" />
	<path
   fill="#878787"
   d="M 56.1,172.5 C 35.5,172.5 19.2,166.1 11.3,153 -5.7,124.7 23.6,75.7 76.6,43.9 114.6,21.1 156.3,12.3 182.8,21.6 L 182.3,23 C 156.2,13.9 115,22.6 77.4,45.2 25,76.6 -4,124.6 12.6,152.2 c 16.6,27.6 72.6,24.5 124.9,-6.9 13.2,-7.9 25.2,-17.1 35.5,-27.1 l 1,1.1 c -10.4,10.1 -22.5,19.3 -35.8,27.3 -28.5,17.1 -58.1,25.9 -82.1,25.9 z"
   id="path4"
   style="fill:#ffffff" />
	<path
   fill="#3FB498"
   d="m 41.2,172.3 c 0.4,0.6 0.8,1.3 1.3,1.9 -0.1,-0.4 -0.2,-0.8 -0.1,-1.4 -0.1,-0.5 -0.6,-0.4 -1.2,-0.5"
   id="path6"
   style="fill:#ffffff" />
	<path
   fill="#3FB498"
   d="m 43.8,175.9 c 0.1,0.1 0.2,0.2 0.3,0.3 0.1,0 0.3,0.1 0.4,0.1 -0.2,-0.1 -0.5,-0.3 -0.7,-0.4"
   id="path8"
   style="fill:#ffffff" />
	<path
   fill="#3FB498"
   d="m 45.6,176.9 c 0.3,0.5 0.8,0.9 1.6,1.2 -0.5,-0.5 -1.1,-0.9 -1.6,-1.2"
   id="path10"
   style="fill:#ffffff" />
	<path
   fill="#3FB498"
   d="m 45.2,175.7 c -0.1,0.3 -0.2,0.6 -0.5,0.6 -0.1,0 -0.1,0 -0.2,0 v 0 l 1.1,0.6 c -0.3,-0.4 -0.4,-0.8 -0.4,-1.2"
   id="path12"
   style="fill:#ffffff" />
	<path
   fill="#3FB498"
   d="m 45.2,174.7 c 0,0 0,0 0,0 0,0 0,0 0,0 m 0,0 c -0.1,0.3 -0.1,0.7 -0.1,1 0.1,-0.4 0.1,-0.8 0.1,-1"
   id="path14"
   style="fill:#ffffff" />
	<path
   fill="#3FB498"
   d="m 45.5,166.3 c 0.1,0.9 0.3,1.8 0.6,2.8 0.1,0.7 1,1 2,1.1 1,0.2 2.2,0.2 3,0.6 0.4,0 -1.1,1.6 -0.4,1.6 1.5,0.5 3,0.4 4.1,1.1 0,0 0,0 0,0 0.3,0 0.4,0.6 0.5,1.2 0.1,0.6 0.2,1.2 0.6,1.2 0,0 0,0 0.1,0 0.1,0 0.3,0 0.4,0 0.9,0 2.1,-0.2 3,-0.5 1.1,-0.4 1.6,-0.9 0.7,-1.2 -1.5,-0.5 -2.7,-0.8 -3.9,-1.2 -1.2,-0.4 -2.3,-0.9 -3.5,-1.5 -2.2,-0.7 -4.5,-1.6 -6.5,-3.2 -0.4,-0.7 -0.5,-1.3 -0.7,-2"
   id="path16"
   style="fill:#ffffff" />
	<path
   fill="#3FB498"
   d="m 38.8,156 c -0.6,0.1 -1.3,0.1 -1.5,0.7 0.3,0.4 0.8,1.1 0.8,1.1 -1.4,1.8 -0.5,3.6 0.5,5.1 0.3,-0.3 0.6,-0.7 0.9,-1 -0.2,-0.4 -0.4,-0.7 -0.6,-0.7 -0.2,0 -0.4,0.1 -0.5,0.4 0.7,-2.1 0.7,-3.8 0.4,-5.6"
   id="path18"
   style="fill:#ffffff" />
	<path
   fill="#3FB498"
   d="m 38.7,154.9 v 0 l 0.1,1.1 c 0.1,0 0.1,0 0.2,0 -0.1,-0.4 -0.2,-0.8 -0.3,-1.1"
   id="path20"
   style="fill:#ffffff" />
	<path
   fill="#3FB498"
   d="m 200.6,110.6 c -1.4,0 -2.5,0.2 -2.6,0.2 -2.2,0.6 -3.7,1.1 -4.8,1.9 -1.1,0.7 -1.8,1.6 -2.5,2.6 -0.7,1 -1.4,2.2 -2.5,3.4 -0.9,1.1 -2.2,2.2 -3.9,3.2 0.5,-0.2 0.8,-0.3 1.1,-0.3 0.3,0 0.5,0.1 0.6,0.3 0.3,0.4 0.2,1.4 -0.4,2.6 -1.2,2.3 -4.3,5.2 -8.2,5.6 -2.9,0.3 -5.2,1.1 -7.2,2.4 -2,1.3 -3.8,3 -5.5,4.8 -3.5,3.7 -7,7.9 -11.7,10 -2.3,1 -4.3,2.8 -7,4.3 -7.3,3 -13.8,6.6 -20.6,10 -6.7,3.4 -13.8,6.7 -21.8,8.3 -4.1,1 -7.4,3.6 -10.9,5.2 -0.8,0.2 -1.7,0.3 -2.6,0.3 -0.8,0 -1.6,-0.1 -2.4,-0.1 -0.8,-0.1 -1.5,-0.1 -2.2,-0.1 -0.1,0 -0.3,0 -0.4,0 -3.3,0.2 -6.1,0.9 -8.9,1.7 3.1,-0.2 5.3,-0.8 8.7,-1.3 0.1,0 0.2,0 0.2,0 0.8,0 0.5,0.7 -0.3,1.4 -0.8,0.8 -2.2,1.7 -3,2 -0.1,0 -0.1,0.1 -0.2,0.1 -0.3,0 -0.7,-0.4 -1,-0.8 -0.3,-0.4 -0.7,-0.8 -1,-0.8 -0.1,0 -0.1,0 -0.2,0.1 0,0 0,0 0,0 -1.4,0 -2.7,0.9 -4.3,1.4 -0.1,0 -0.1,0.1 -0.2,0.1 -0.2,0 -0.3,-0.4 -0.4,-0.8 -0.1,-0.4 -0.1,-0.8 -0.2,-0.8 0,0 0,0 0,0 -1,0.2 -2,0.9 -3,1.4 -0.7,0.4 -1.3,0.7 -1.8,0.7 -0.2,0 -0.4,0 -0.6,-0.2 -1,-0.5 -1.8,-1 -2.6,-1.5 -0.5,-0.2 -1,-0.5 -1.6,-0.5 -0.4,0.1 -0.8,0.2 -1.2,0.2 -1.2,0.2 -2.5,0.3 -3.9,0.3 -1.9,0 -3.8,-0.2 -5.6,-0.6 l -0.1,0.2 c 1.6,0.7 3,1.5 4.3,3.2 -0.3,-0.5 -0.1,-0.9 0.4,-0.9 0.1,0 0.2,0 0.4,0 l 0.3,1.2 c -0.1,0 -0.2,0 -0.2,0 -1.7,0 -3.4,-0.2 -4.1,-2.2 0,0 -0.8,0.1 -1.3,0.2 -0.3,-0.5 0,-1.1 0.2,-1.6 -0.3,-0.1 -0.7,-0.3 -1,-0.4 0,0.6 0.4,1.6 0.8,2.3 0.4,0.8 0.8,1.3 0.8,1.3 4.4,2 8.8,3.3 13.2,4.3 0.3,-0.3 0.6,-0.6 0.8,-0.6 0.1,0 0.2,0 0.3,0.1 0.3,0.4 0.6,0.7 0.9,0.9 l 1.9,0.4 c 0.2,0 0.5,-0.1 0.7,-0.1 l -0.3,0.2 c 1.5,0.2 2.9,0.5 4.4,0.6 0.3,0 0.7,-0.1 0.9,-0.1 0.5,-0.1 1,-0.2 1.4,-0.2 0.5,0 1,0.2 1.4,0.7 l 0.8,0.1 c -0.1,-0.1 -0.1,-0.1 -0.2,-0.2 0.1,0.1 0.2,0.1 0.3,0.2 1.1,0.1 2.3,0.1 3.4,0.2 1.2,0 2.4,0.1 3.7,0.1 1,0 2.1,0 3.1,0 7.4,-0.1 14.5,-1.4 21.4,-3.1 7,-1.8 13.8,-4.1 21,-6.7 7.8,-2.8 15.3,-5.8 22.8,-9 7.4,-3.2 13.6,-7.8 19.6,-12.7 3,-2.4 6,-4.9 9.2,-7.4 3.2,-2.5 6.5,-5 10.2,-7.5 2.8,-2 5.8,-5.8 8.3,-10.1 2.5,-4.2 4.3,-9 5.3,-12.3 0,-2.5 -0.9,-4.3 -2,-5.4 -1.1,-1.2 -2.5,-1.7 -3.9,-2 -0.5,-0.4 -1.6,-0.4 -2.5,-0.4 M 63.7,179.9 c 0.1,-0.6 0.2,-1.2 0.2,-1.7 0,0.5 -0.1,1.1 -0.2,1.7 -0.5,-0.3 -1.1,-0.9 -1.6,-1.2 0.5,0.2 1.1,0.9 1.6,1.2 m 22.5,4.5 c 0.1,0 0.1,0 0,0 0.3,-0.3 0.5,-0.6 0.8,-0.6 -0.2,0 -0.5,0.3 -0.8,0.6 0.1,0 0.1,0 0,0 m 1,-0.6 c 0,0 0,0 0,0 0,0 0,0 0,0 m 1.9,1.8 c -0.7,-0.6 -1.3,-1.2 -1.8,-1.6 -0.1,-0.1 -0.1,-0.1 -0.2,-0.2 0.1,0 0.1,0.1 0.2,0.2 0.6,0.4 1.2,1 1.8,1.6 m -16.3,0.1 v 0 c 0.4,-0.2 0.3,-0.6 0.1,-0.9 -0.2,-0.2 -0.4,-0.5 -0.6,-0.8 0.1,0.2 0.4,0.5 0.6,0.8 0.3,0.3 0.6,0.5 1,0.7 -0.4,0.1 -0.7,0.1 -1.1,0.2 m 12.1,-1.4 c -0.1,0 -0.1,0 0,0 -0.1,0 -0.1,0 0,0 m 0,0 c 0,0 0,0 0,0 0,0 0,0 0,0 m 0.6,0.6 c -0.2,0 -0.4,-0.2 -0.6,-0.6 0.2,0.4 0.4,0.6 0.6,0.6 m 0,0 c 0,0 0,0 0,0 0,0 0,0 0,0 m 3.6,0.7 c 0.3,-0.2 0.7,-0.2 1.1,-0.2 0.8,0 1.7,0.3 2.5,0.9 -0.4,0.4 -0.9,0.5 -1.3,0.5 -0.7,0 -1.5,-0.5 -2.3,-1.2 m -14.3,-0.2 c 0.2,0 0.3,0 0.5,0 0.6,0 1.1,0.2 1.5,0.8 -1.2,-0.2 -2.5,-0.3 -3.7,-0.6 0.3,0 0.7,0 0.9,-0.1 0,0 0.1,0 0.1,0 0,0 -0.1,0 -0.1,-0.1 0.2,0.1 0.5,0 0.8,0 m 109.5,-63.5 c -0.2,0.1 -0.5,0.3 -0.8,0.4 0.3,-0.1 0.5,-0.3 0.8,-0.4 M 58.6,180.7 c 0,0.1 0.1,0.1 0.2,0.2 -0.1,-0.1 -0.2,-0.1 -0.2,-0.2"
   id="path22"
   style="fill:#ffffff" />
	<path
   fill="#3FB498"
   d="m 75.3,185.4 c -0.2,0 -0.3,0 -0.5,0 -0.2,0 -0.5,0.1 -0.7,0.1 0,0 -0.1,0 -0.1,0 -0.3,0 -0.6,0.1 -0.9,0.1 1.2,0.2 2.5,0.4 3.7,0.6 -0.4,-0.6 -0.9,-0.8 -1.5,-0.8"
   id="path24"
   style="fill:#ffffff" />
	<path
   fill="#3FB498"
   d="m 166.5,33 c -4.5,0 -7.9,0.4 -9.4,0.7 -2.4,0.6 -4.6,1.8 -6.8,3.1 -2.2,1.2 -4.3,2.5 -6.9,3.3 -1.7,0.5 -3.4,0.2 -4.5,1.2 0,0.4 -0.5,0.9 -1.1,1.4 -3.3,1.2 -7.3,0.7 -9.3,2.8 -0.2,0.1 -0.4,0.2 -0.7,0.2 -1.1,0 -2.9,-0.7 -4.6,-1.4 -1.6,-0.6 -3.1,-1.2 -3.8,-1.2 -0.2,0 -0.4,0.1 -0.3,0.3 0.3,2.2 0.4,2.7 0,2.7 -0.2,0 -0.4,-0.1 -0.8,-0.2 -0.4,-0.1 -0.8,-0.2 -1.4,-0.2 -0.6,0 -1.2,0.1 -2,0.3 -0.6,0.1 -1.3,2.6 -2.4,2.8 -3.9,0.4 -4.1,2.3 -7.6,4.6 -2.4,2 -4.2,2.6 -5.9,3.2 -1.7,0.7 -3.2,1.5 -4.7,4.1 -0.2,0.3 -1.8,1.9 -3.3,3.5 -1.5,1.6 -3,3.1 -3,3.1 -2.9,1.6 -4.7,3.5 -6.6,5 -1.9,1.5 -3.9,2.7 -7.1,3 -1.2,2.9 -3.9,4.9 -6.8,7 -2.9,2 -6,4 -7.9,6.5 -1.9,2.5 -3.7,3.8 -5.7,5.1 -2,1.2 -4.3,2.2 -6.9,4.1 -1.2,1.2 -1.7,2.3 -2.8,2.8 -1.2,0.5 -0.5,3.4 -1.6,4.7 l -1.1,-0.9 c -0.4,0.4 -1.1,1.4 -1.5,1.8 -0.1,0.2 -0.3,0.2 -0.4,0.2 -0.2,0 -0.5,-0.2 -0.7,-0.4 -0.5,-0.4 -1,-0.8 -1.7,-0.8 -0.3,0 -0.6,0.1 -1,0.3 -1.8,2 -3.4,4.2 -4.7,6.7 -0.2,2.8 0,5.6 0.4,8.4 0.6,0.2 1.3,0.5 1.7,0.9 0.2,0.8 0.5,1.6 0.8,2.4 1.4,0.6 3,0.5 3.9,0.9 2,0.1 4,1 6,1.6 1.6,0.5 3.1,0.9 4.6,0.9 0.4,0 0.7,0 1.1,-0.1 0.5,-0.1 0.9,-0.9 1.5,-1.8 0.5,-0.9 1.3,-1.9 2.3,-2.4 0.1,0 0.1,0 0.2,0 0.7,0 1.8,0.7 3,1.1 0.1,-0.8 0.7,-1.1 1.3,-1.1 0.5,0 1.2,0.2 1.7,0.6 l 0.4,-0.6 c 0.5,0.2 1.8,0.6 1.8,0.6 1.2,-1.5 3.1,-2.9 4.6,-4.4 1.5,-1.5 2.8,-3 2.9,-5 0.2,-0.8 0,-2.5 -0.1,-3.6 0,-0.6 1.3,-1.1 1.6,-1.3 -0.7,-1.2 -2.1,-1.9 -3.1,-2.8 1.6,-1 4,-2.5 5.5,-4 1.5,-1.5 2.3,-3.2 0.2,-4.6 2.1,-1.9 0.7,-3.7 2.7,-5.9 2.6,-3 6.3,-6.5 10.3,-9.7 2,-1.9 4.3,-3.4 6.6,-4.9 0.8,-0.6 1.7,-1.1 2.5,-1.7 8.6,-5.7 17.2,-9.1 25.7,-12.3 4.2,-1.6 8.5,-3.1 12.8,-4.7 4.3,-1.6 8.8,-3.4 13.5,-5.5 9.3,-4 19.9,-6.3 30.1,-6.3 0.3,0 0.5,0 0.8,0 5.2,0.1 10.2,0.7 14.8,1.9 4.6,1.2 8.6,3 11.8,5.2 3.2,2.2 5.3,4.8 6.5,7.2 1.2,2.5 1.6,4.9 1.5,6.9 -0.1,2.1 -0.5,3.9 -1,5.4 -0.5,1.5 -1,2.7 -1.3,3.5 0.5,0.8 0.9,1.6 1.3,2.4 1.4,-0.9 2.8,-2.8 3.7,-5.1 0.9,-2.4 1.3,-5.2 0.8,-8.1 -0.4,-2.9 -1.7,-5.8 -3.5,-8.1 -1.8,-2.4 -3.9,-4.3 -5.7,-5.8 -2.9,-2 -5.4,-3.4 -7.3,-4.5 -0.3,-0.2 -0.4,-0.2 -0.3,-0.2 0.1,0 0.7,0.2 1.6,0.7 1.4,0.7 3.8,2.1 6,4 2.2,1.6 4.5,3.5 6.4,6.2 -0.6,-2.1 -1.6,-4.2 -2.9,-6.1 -1.2,-1.9 -2.6,-3.6 -3.9,-4.9 -2.4,-1.2 -4.9,-2.3 -7.5,-3.2 -5.8,-2 -11.9,-2.9 -17.9,-3.4 -3.8,-0.3 -7.5,-0.4 -11.3,-0.4 -2.3,0 -4.6,0 -6.9,0.1 -2.2,0 -5.8,0.4 -9.3,0.8 -3.5,0.4 -7,1 -9.2,1 8.8,-1.9 17.8,-3.1 26.9,-3.3 1,0 2,0 3,0 8.1,0 16.3,0.8 24.2,3.1 -0.5,-0.2 -0.9,-0.4 -1.4,-0.7 -4.7,-1.4 -9.5,-2.4 -14.3,-2.9 -4.5,-0.5 -9,-0.8 -13.5,-0.8 -0.4,0 -0.7,0 -1.1,0 -1.4,0.1 -2.8,0.1 -4.3,0.1 -0.2,0 -0.5,0 -0.7,0 1.7,-0.1 3.4,-0.1 5,-0.1 3.9,-0.2 7.7,-0.7 12,-0.7 0.4,0 0.9,0 1.3,0 3,0.2 6.3,1.2 9.2,1.7 2.4,0.5 4.4,1.6 6.4,2.7 1.4,0.4 2.8,0.9 4.1,1.4 0.4,0.1 0.9,0.1 1.3,0.3 v -0.1 c -0.5,-1.1 -3.1,-3 -7,-4.7 -3.9,-1.8 -9.2,-3.3 -14.6,-4.3 -5.4,-1 -11,-1.4 -15.6,-1.4 0.5,0.1 0.4,0.1 0.4,0.1"
   id="path26"
   style="fill:#ffffff" />
	<path
   fill="#878787"
   d="m 210.5,225.8 c 0,2.4 -0.6,4 -1.9,4.9 -1.3,0.9 -3.3,1.4 -6.2,1.4 -0.2,0 -0.5,0 -1,0 -0.5,0 -0.9,0 -1.4,-0.1 -0.5,0 -1,0 -1.4,-0.1 -0.5,0 -0.8,0 -1,0 v -12.2 c 0.3,0 0.6,-0.1 1,-0.1 0.4,0 0.9,0 1.3,-0.1 0.5,0 0.9,0 1.4,-0.1 0.5,0 0.8,0 1.1,0 2.7,0 4.7,0.5 6.1,1.3 1.4,0.9 2,2.4 2,4.4 z m 8.6,26.7 -8.5,-15.8 c 2.2,-0.9 4,-2.2 5.4,-4 1.3,-1.8 2,-4.1 2,-7 v -0.5 c 0,-2.3 -0.4,-4.2 -1.3,-5.8 -0.8,-1.6 -2,-2.8 -3.4,-3.8 -1.4,-0.9 -3.1,-1.6 -5,-2 -1.9,-0.4 -3.9,-0.6 -6,-0.6 -2,0 -3.9,0.1 -5.7,0.2 -1.8,0.1 -3.5,0.3 -4.9,0.5 -0.5,0.1 -1,0.2 -1.3,0.5 -0.3,0.2 -0.5,0.6 -0.5,1.2 v 37.2 c 0,0.3 0.1,0.5 0.3,0.8 0.2,0.2 0.5,0.3 0.8,0.3 h 5.4 c 0.3,0 0.5,-0.1 0.7,-0.3 0.2,-0.2 0.3,-0.5 0.3,-0.8 V 238 c 0.6,0 1.4,0.1 2.3,0.1 0.9,0.1 1.8,0.1 2.5,0.1 h 0.8 l 7.8,14.4 c 0.1,0.3 0.3,0.5 0.4,0.8 0.1,0.2 0.4,0.3 0.6,0.3 h 6.6 c 0.4,0 0.6,-0.2 0.6,-0.6 0.2,-0.3 0.2,-0.4 0.1,-0.6 m -39.3,-13.7 v -24.2 c 0,-0.3 -0.1,-0.5 -0.3,-0.7 -0.2,-0.2 -0.5,-0.3 -0.8,-0.3 h -5.3 c -0.3,0 -0.5,0.1 -0.8,0.3 -0.2,0.2 -0.3,0.4 -0.3,0.7 v 24.3 c 0,1.5 -0.1,2.9 -0.3,4 -0.2,1.1 -0.6,2.1 -1.2,2.8 -0.6,0.8 -1.3,1.3 -2.3,1.7 -1,0.4 -2.2,0.5 -3.6,0.5 -1.5,0 -2.7,-0.2 -3.6,-0.5 -0.9,-0.4 -1.7,-0.9 -2.2,-1.7 -0.6,-0.8 -0.9,-1.7 -1.2,-2.8 -0.2,-1.1 -0.3,-2.5 -0.3,-4 v -24.3 c 0,-0.3 -0.1,-0.5 -0.3,-0.7 -0.2,-0.2 -0.5,-0.3 -0.8,-0.3 h -5.3 c -0.3,0 -0.5,0.1 -0.8,0.3 -0.2,0.2 -0.3,0.4 -0.3,0.7 v 24.2 c 0,2.9 0.4,5.3 1.1,7.2 0.7,1.9 1.8,3.5 3.1,4.7 1.3,1.2 2.9,2 4.7,2.6 1.8,0.5 3.8,0.8 6,0.8 2.2,0 4.1,-0.3 6,-0.8 1.8,-0.5 3.4,-1.4 4.7,-2.6 1.3,-1.2 2.3,-2.8 3.1,-4.7 0.6,-1.9 1,-4.3 1,-7.2 m -35.1,13.4 v -3.5 c 0,-0.3 -0.1,-0.5 -0.3,-0.8 -0.2,-0.2 -0.5,-0.3 -0.8,-0.3 h -9.9 c -1.6,0 -2.7,-0.3 -3.3,-1 -0.6,-0.6 -0.9,-1.9 -0.9,-3.7 v -28.4 c 0,-0.3 -0.1,-0.5 -0.3,-0.8 -0.2,-0.2 -0.5,-0.3 -0.8,-0.3 h -5.3 c -0.3,0 -0.5,0.1 -0.8,0.3 -0.2,0.2 -0.3,0.5 -0.3,0.8 V 243 c 0,2.3 0.3,4.2 1,5.6 0.6,1.4 1.5,2.6 2.6,3.4 1.1,0.8 2.4,1.4 3.9,1.6 1.5,0.3 3.1,0.4 4.9,0.4 0.7,0 1.5,0 2.4,-0.1 0.9,0 1.8,-0.1 2.6,-0.2 0.9,-0.1 1.7,-0.2 2.4,-0.2 0.7,-0.1 1.3,-0.2 1.7,-0.3 0.4,-0.1 0.7,-0.2 0.8,-0.3 0.4,-0.1 0.4,-0.3 0.4,-0.7 m -38.6,-26.4 c 0,2.4 -0.6,4 -1.9,4.9 -1.3,0.9 -3.3,1.4 -6.2,1.4 -0.2,0 -0.5,0 -1,0 -0.5,0 -0.9,0 -1.4,-0.1 -0.5,0 -1,0 -1.4,-0.1 -0.5,0 -0.8,0 -1,0 v -12.2 c 0.3,0 0.6,-0.1 1,-0.1 0.4,0 0.9,0 1.3,-0.1 0.5,0 0.9,0 1.4,-0.1 0.4,0 0.8,0 1.1,0 2.7,0 4.7,0.5 6.1,1.3 1.4,0.9 2,2.4 2,4.4 z m 8.6,26.7 -8.5,-15.8 c 2.2,-0.9 4,-2.2 5.4,-4 1.3,-1.8 2,-4.1 2,-7 v -0.5 c 0,-2.3 -0.4,-4.2 -1.3,-5.8 -0.8,-1.6 -2,-2.8 -3.4,-3.8 -1.4,-0.9 -3.1,-1.6 -5,-2 -1.9,-0.4 -3.9,-0.6 -6,-0.6 -2,0 -3.9,0.1 -5.7,0.2 -1.8,0.1 -3.5,0.3 -4.9,0.5 -0.5,0.1 -1,0.2 -1.3,0.5 -0.3,0.2 -0.5,0.6 -0.5,1.2 v 37.2 c 0,0.3 0.1,0.5 0.3,0.8 0.2,0.2 0.5,0.3 0.8,0.3 H 92 c 0.3,0 0.5,-0.1 0.7,-0.3 0.2,-0.2 0.3,-0.5 0.3,-0.8 V 238 c 0.6,0 1.4,0.1 2.3,0.1 0.9,0.1 1.8,0.1 2.5,0.1 h 0.8 l 7.8,14.4 c 0.1,0.3 0.3,0.5 0.4,0.8 0.1,0.2 0.4,0.3 0.6,0.3 h 6.6 c 0.4,0 0.6,-0.2 0.6,-0.6 0.2,-0.3 0.2,-0.4 0.1,-0.6 M 76,252.2 v -3.5 c 0,-0.3 -0.1,-0.5 -0.3,-0.8 -0.2,-0.2 -0.5,-0.3 -0.8,-0.3 h -11 c -1.6,0 -2.7,-0.3 -3.3,-1 -0.6,-0.6 -0.9,-1.9 -0.9,-3.7 v -7 h 14.6 c 0.3,0 0.5,-0.1 0.8,-0.3 0.2,-0.2 0.3,-0.5 0.3,-0.8 v -3.9 c 0,-0.3 -0.1,-0.5 -0.3,-0.8 -0.2,-0.2 -0.5,-0.3 -0.8,-0.3 H 59.6 V 224 c 0,-1.8 0.3,-3 0.9,-3.7 0.6,-0.6 1.7,-1 3.3,-1 h 11 c 0.3,0 0.5,-0.1 0.8,-0.3 0.2,-0.2 0.3,-0.5 0.3,-0.8 V 215 c 0,-0.4 -0.1,-0.7 -0.2,-0.8 -0.2,-0.1 -0.4,-0.3 -0.8,-0.3 -0.4,-0.1 -0.9,-0.2 -1.4,-0.2 -0.5,-0.1 -1.2,-0.2 -1.9,-0.2 -0.8,-0.1 -1.7,-0.1 -2.8,-0.2 -1.1,-0.1 -2.5,-0.1 -4.1,-0.1 -1.8,0 -3.4,0.1 -4.9,0.4 -1.5,0.3 -2.8,0.8 -4,1.6 -1.1,0.8 -2,1.9 -2.7,3.4 -0.7,1.4 -1,3.3 -1,5.6 V 243 c 0,2.3 0.3,4.2 1,5.6 0.7,1.4 1.5,2.6 2.7,3.4 1.1,0.8 2.4,1.4 4,1.6 1.5,0.3 3.2,0.4 4.9,0.4 1.6,0 3,0 4.1,-0.1 1.1,-0.1 2,-0.1 2.8,-0.2 0.8,-0.1 1.4,-0.2 1.9,-0.2 0.5,-0.1 1,-0.2 1.4,-0.2 0.4,-0.1 0.7,-0.2 0.8,-0.3 0.2,-0.2 0.3,-0.4 0.3,-0.8 M 36.3,226 c 0,2.2 -0.6,3.8 -1.9,4.9 -1.2,1.1 -3.3,1.6 -6.2,1.6 -0.2,0 -0.5,0 -1,0 -0.5,0 -0.9,0 -1.4,-0.1 -0.5,0 -1,0 -1.4,-0.1 -0.5,0 -0.8,0 -1,0 v -12.9 c 0.3,0 0.6,-0.1 1,-0.1 0.4,0 0.9,0 1.3,-0.1 0.5,0 0.9,0 1.4,-0.1 0.4,0 0.8,0 1.1,0 2.7,0 4.7,0.5 6.1,1.4 1.3,1 2,2.6 2,4.9 z m 7.5,-0.5 c 0,-2.4 -0.4,-4.4 -1.3,-6 -0.8,-1.6 -2,-2.9 -3.4,-3.9 -1.4,-1 -3.1,-1.7 -5,-2.1 -1.9,-0.4 -3.9,-0.6 -6,-0.6 -2,0 -3.9,0.1 -5.7,0.2 -1.8,0.1 -3.5,0.3 -4.9,0.5 -0.5,0.1 -1,0.2 -1.3,0.5 -0.3,0.2 -0.5,0.6 -0.5,1.2 v 37.2 c 0,0.3 0.1,0.5 0.3,0.8 0.2,0.2 0.5,0.3 0.8,0.3 h 5.4 c 0.3,0 0.5,-0.1 0.7,-0.3 0.2,-0.2 0.3,-0.5 0.3,-0.8 v -14.1 c 0.6,0 1.4,0.1 2.3,0.1 0.9,0.1 1.8,0.1 2.5,0.1 2.1,0 4.1,-0.2 6,-0.6 1.9,-0.4 3.5,-1.1 5,-2.1 1.4,-1 2.6,-2.3 3.4,-3.9 0.8,-1.6 1.3,-3.6 1.3,-6 v -0.5 z"
   id="path28"
   style="fill:#ffffff" />
</g>
</svg>
